<mxfile host="app.diagrams.net" modified="2024-03-19T09:18:34.162Z" agent="Mozilla/5.0 (Windows NT 10.0; Win64; x64) AppleWebKit/537.36 (KHTML, like Gecko) Chrome/122.0.0.0 Safari/537.36" version="23.0.2" etag="myRSS-GDJ3UlXsql8-yu" type="github">
  <diagram name="第 1 页" id="Wj_qWsWuq65p6FTtyxBT">
    <mxGraphModel>
      <root>
        <mxCell id="0" />
        <mxCell id="1" parent="0" />
      </root>
    </mxGraphModel>
  </diagram>
</mxfile>
